<svg id="visual" viewBox="0 0 960 540" width="960" height="540" xmlns="http://www.w3.org/2000/svg" xmlns:xlink="http://www.w3.org/1999/xlink" version="1.1"><rect x="0" y="0" width="960" height="540" fill="#210010"></rect><defs><linearGradient id="grad1_0" x1="43.8%" y1="0%" x2="100%" y2="100%"><stop offset="14.444444444444446%" stop-color="#fbae3c" stop-opacity="1"></stop><stop offset="85.55555555555554%" stop-color="#fbae3c" stop-opacity="1"></stop></linearGradient></defs><defs><linearGradient id="grad1_1" x1="43.8%" y1="0%" x2="100%" y2="100%"><stop offset="14.444444444444446%" stop-color="#fbae3c" stop-opacity="1"></stop><stop offset="85.55555555555554%" stop-color="#e58b3d" stop-opacity="1"></stop></linearGradient></defs><defs><linearGradient id="grad1_2" x1="43.8%" y1="0%" x2="100%" y2="100%"><stop offset="14.444444444444446%" stop-color="#ca6c3e" stop-opacity="1"></stop><stop offset="85.55555555555554%" stop-color="#e58b3d" stop-opacity="1"></stop></linearGradient></defs><defs><linearGradient id="grad1_3" x1="43.8%" y1="0%" x2="100%" y2="100%"><stop offset="14.444444444444446%" stop-color="#ca6c3e" stop-opacity="1"></stop><stop offset="85.55555555555554%" stop-color="#ab503c" stop-opacity="1"></stop></linearGradient></defs><defs><linearGradient id="grad1_4" x1="43.8%" y1="0%" x2="100%" y2="100%"><stop offset="14.444444444444446%" stop-color="#883837" stop-opacity="1"></stop><stop offset="85.55555555555554%" stop-color="#ab503c" stop-opacity="1"></stop></linearGradient></defs><defs><linearGradient id="grad1_5" x1="43.8%" y1="0%" x2="100%" y2="100%"><stop offset="14.444444444444446%" stop-color="#883837" stop-opacity="1"></stop><stop offset="85.55555555555554%" stop-color="#64242e" stop-opacity="1"></stop></linearGradient></defs><defs><linearGradient id="grad1_6" x1="43.8%" y1="0%" x2="100%" y2="100%"><stop offset="14.444444444444446%" stop-color="#401421" stop-opacity="1"></stop><stop offset="85.55555555555554%" stop-color="#64242e" stop-opacity="1"></stop></linearGradient></defs><defs><linearGradient id="grad1_7" x1="43.8%" y1="0%" x2="100%" y2="100%"><stop offset="14.444444444444446%" stop-color="#401421" stop-opacity="1"></stop><stop offset="85.55555555555554%" stop-color="#210010" stop-opacity="1"></stop></linearGradient></defs><defs><linearGradient id="grad2_0" x1="0%" y1="0%" x2="56.3%" y2="100%"><stop offset="14.444444444444446%" stop-color="#fbae3c" stop-opacity="1"></stop><stop offset="85.55555555555554%" stop-color="#fbae3c" stop-opacity="1"></stop></linearGradient></defs><defs><linearGradient id="grad2_1" x1="0%" y1="0%" x2="56.3%" y2="100%"><stop offset="14.444444444444446%" stop-color="#e58b3d" stop-opacity="1"></stop><stop offset="85.55555555555554%" stop-color="#fbae3c" stop-opacity="1"></stop></linearGradient></defs><defs><linearGradient id="grad2_2" x1="0%" y1="0%" x2="56.3%" y2="100%"><stop offset="14.444444444444446%" stop-color="#e58b3d" stop-opacity="1"></stop><stop offset="85.55555555555554%" stop-color="#ca6c3e" stop-opacity="1"></stop></linearGradient></defs><defs><linearGradient id="grad2_3" x1="0%" y1="0%" x2="56.3%" y2="100%"><stop offset="14.444444444444446%" stop-color="#ab503c" stop-opacity="1"></stop><stop offset="85.55555555555554%" stop-color="#ca6c3e" stop-opacity="1"></stop></linearGradient></defs><defs><linearGradient id="grad2_4" x1="0%" y1="0%" x2="56.3%" y2="100%"><stop offset="14.444444444444446%" stop-color="#ab503c" stop-opacity="1"></stop><stop offset="85.55555555555554%" stop-color="#883837" stop-opacity="1"></stop></linearGradient></defs><defs><linearGradient id="grad2_5" x1="0%" y1="0%" x2="56.3%" y2="100%"><stop offset="14.444444444444446%" stop-color="#64242e" stop-opacity="1"></stop><stop offset="85.55555555555554%" stop-color="#883837" stop-opacity="1"></stop></linearGradient></defs><defs><linearGradient id="grad2_6" x1="0%" y1="0%" x2="56.3%" y2="100%"><stop offset="14.444444444444446%" stop-color="#64242e" stop-opacity="1"></stop><stop offset="85.55555555555554%" stop-color="#401421" stop-opacity="1"></stop></linearGradient></defs><defs><linearGradient id="grad2_7" x1="0%" y1="0%" x2="56.3%" y2="100%"><stop offset="14.444444444444446%" stop-color="#210010" stop-opacity="1"></stop><stop offset="85.55555555555554%" stop-color="#401421" stop-opacity="1"></stop></linearGradient></defs><g transform="translate(960, 0)"><path d="M0 540C-60 533.9 -120 527.8 -159.5 490.7C-198.9 453.7 -217.8 385.9 -254.5 350.3C-291.2 314.8 -345.8 311.6 -395.6 287.4C-445.4 263.3 -490.3 218.3 -513.6 166.9C-536.8 115.5 -538.4 57.7 -540 0L0 0Z" fill="#2f0c1a"></path><path d="M0 472.5C-52.5 467.1 -105 461.8 -139.5 429.4C-174 397 -190.6 337.6 -222.7 306.5C-254.8 275.4 -302.6 272.6 -346.2 251.5C-389.7 230.4 -429 191 -449.4 146C-469.7 101 -471.1 50.5 -472.5 0L0 0Z" fill="#521c28"></path><path d="M0 405C-45 400.4 -90 395.8 -119.6 368.1C-149.2 340.3 -163.3 289.4 -190.9 262.7C-218.4 236.1 -259.4 233.7 -296.7 215.6C-334 197.5 -367.7 163.7 -385.2 125.2C-402.6 86.6 -403.8 43.3 -405 0L0 0Z" fill="#762e33"></path><path d="M0 337.5C-37.5 333.7 -75 329.8 -99.7 306.7C-124.3 283.6 -136.1 241.2 -159.1 218.9C-182 196.7 -216.2 194.7 -247.3 179.6C-278.4 164.6 -306.4 136.4 -321 104.3C-335.5 72.2 -336.5 36.1 -337.5 0L0 0Z" fill="#9a443a"></path><path d="M0 270C-30 266.9 -60 263.9 -79.7 245.4C-99.4 226.9 -108.9 192.9 -127.3 175.2C-145.6 157.4 -172.9 155.8 -197.8 143.7C-222.7 131.7 -245.2 109.1 -256.8 83.4C-268.4 57.7 -269.2 28.9 -270 0L0 0Z" fill="#bb5e3d"></path><path d="M0 202.5C-22.5 200.2 -45 197.9 -59.8 184C-74.6 170.2 -81.7 144.7 -95.4 131.4C-109.2 118 -129.7 116.8 -148.4 107.8C-167 98.7 -183.9 81.8 -192.6 62.6C-201.3 43.3 -201.9 21.7 -202.5 0L0 0Z" fill="#d97b3e"></path><path d="M0 135C-15 133.5 -30 131.9 -39.9 122.7C-49.7 113.4 -54.4 96.5 -63.6 87.6C-72.8 78.7 -86.5 77.9 -98.9 71.9C-111.3 65.8 -122.6 54.6 -128.4 41.7C-134.2 28.9 -134.6 14.4 -135 0L0 0Z" fill="#f19c3d"></path><path d="M0 67.5C-7.5 66.7 -15 66 -19.9 61.3C-24.9 56.7 -27.2 48.2 -31.8 43.8C-36.4 39.3 -43.2 38.9 -49.5 35.9C-55.7 32.9 -61.3 27.3 -64.2 20.9C-67.1 14.4 -67.3 7.2 -67.5 0L0 0Z" fill="#fbae3c"></path></g><g transform="translate(0, 540)"><path d="M0 -540C46.1 -489.2 92.1 -438.4 133.8 -411.8C175.5 -385.2 212.8 -382.7 273.9 -377C335.1 -371.3 420.1 -362.4 436.9 -317.4C453.7 -272.4 402.2 -191.5 408 -132.6C413.8 -73.7 476.9 -36.8 540 0L0 0Z" fill="#2f0c1a"></path><path d="M0 -472.5C40.3 -428.1 80.6 -383.6 117.1 -360.3C153.5 -337 186.2 -334.9 239.7 -329.9C293.2 -324.9 367.6 -317.1 382.3 -277.7C396.9 -238.4 351.9 -167.5 357 -116C362.1 -64.5 417.3 -32.2 472.5 0L0 0Z" fill="#521c28"></path><path d="M0 -405C34.5 -366.9 69.1 -328.8 100.4 -308.9C131.6 -288.9 159.6 -287 205.4 -282.8C251.3 -278.5 315.1 -271.8 327.7 -238.1C340.2 -204.3 301.6 -143.6 306 -99.4C310.4 -55.2 357.7 -27.6 405 0L0 0Z" fill="#762e33"></path><path d="M0 -337.5C28.8 -305.8 57.6 -274 83.6 -257.4C109.7 -240.7 133 -239.2 171.2 -235.6C209.4 -232.1 262.6 -226.5 273 -198.4C283.5 -170.3 251.4 -119.7 255 -82.9C258.6 -46 298.1 -23 337.5 0L0 0Z" fill="#9a443a"></path><path d="M0 -270C23 -244.6 46.1 -219.2 66.9 -205.9C87.7 -192.6 106.4 -191.4 137 -188.5C167.5 -185.6 210 -181.2 218.4 -158.7C226.8 -136.2 201.1 -95.7 204 -66.3C206.9 -36.8 238.5 -18.4 270 0L0 0Z" fill="#bb5e3d"></path><path d="M0 -202.5C17.3 -183.5 34.5 -164.4 50.2 -154.4C65.8 -144.4 79.8 -143.5 102.7 -141.4C125.6 -139.2 157.5 -135.9 163.8 -119C170.1 -102.2 150.8 -71.8 153 -49.7C155.2 -27.6 178.8 -13.8 202.5 0L0 0Z" fill="#d97b3e"></path><path d="M0 -135C11.5 -122.3 23 -109.6 33.5 -103C43.9 -96.3 53.2 -95.7 68.5 -94.3C83.8 -92.8 105 -90.6 109.2 -79.4C113.4 -68.1 100.5 -47.9 102 -33.1C103.5 -18.4 119.2 -9.2 135 0L0 0Z" fill="#f19c3d"></path><path d="M0 -67.5C5.8 -61.2 11.5 -54.8 16.7 -51.5C21.9 -48.1 26.6 -47.8 34.2 -47.1C41.9 -46.4 52.5 -45.3 54.6 -39.7C56.7 -34.1 50.3 -23.9 51 -16.6C51.7 -9.2 59.6 -4.6 67.5 0L0 0Z" fill="#fbae3c"></path></g></svg>